{
  "accessors": [
    {
      "bufferView": 2,
      "componentType": 5126,
      "count": 2866,
      "max": [
        0.8701000213623047,
        0.5349000096321106,
        0.21729999780654907
      ],
      "min": [
        -0.06589999794960022,
        -0.5228000283241272,
        -0.11840000003576279
      ],
      "type": "VEC3"
    },
    {
      "bufferView": 2,
      "byteOffset": 34392,
      "componentType": 5126,
      "count": 2866,
      "max": [
        0.9977855682373047,
        0.9998270869255066,
        0.999603807926178
      ],
      "min": [
        -1.0,
        -0.9996557235717773,
        -0.9998840093612671
      ],
      "type": "VEC3"
    },
    {
      "bufferView": 1,
      "componentType": 5126,
      "count": 2866,
      "max": [
        0.9929999709129333,
        0.9909999966621399
      ],
      "min": [
        0.009999999776482582,
        -0.6679999828338623
      ],
      "type": "VEC2"
    },
    {
      "bufferView": 0,
      "componentType": 5125,
      "count": 11466,
      "type": "SCALAR"
    },
    {
      "bufferView": 2,
      "byteOffset": 68784,
      "componentType": 5126,
      "count": 1514,
      "max": [
        0.8341000080108643,
        0.09059999883174896,
        0.1898999959230423
      ],
      "min": [
        0.5178999900817871,
        -0.09059999883174896,
        -0.03530000150203705
      ],
      "type": "VEC3"
    },
    {
      "bufferView": 2,
      "byteOffset": 86952,
      "componentType": 5126,
      "count": 1514,
      "max": [
        0.9996077418327332,
        0.9985103011131287,
        0.9999995231628418
      ],
      "min": [
        -0.9999874830245972,
        -0.9997215867042542,
        -1.0
      ],
      "type": "VEC3"
    },
    {
      "bufferView": 1,
      "byteOffset": 22928,
      "componentType": 5126,
      "count": 1514,
      "max": [
        0.9900000095367432,
        0.9869999885559082
      ],
      "min": [
        0.009999999776482582,
        0.008999999612569809
      ],
      "type": "VEC2"
    },
    {
      "bufferView": 0,
      "byteOffset": 45864,
      "componentType": 5125,
      "count": 8094,
      "type": "SCALAR"
    },
    {
      "bufferView": 2,
      "byteOffset": 105120,
      "componentType": 5126,
      "count": 5694,
      "max": [
        0.8461999893188477,
        0.08940000087022781,
        0.15690000355243683
      ],
      "min": [
        0.6480000019073486,
        -0.0869000032544136,
        -0.047200001776218414
      ],
      "type": "VEC3"
    },
    {
      "bufferView": 2,
      "byteOffset": 173448,
      "componentType": 5126,
      "count": 5694,
      "max": [
        0.9999470710754395,
        1.0,
        0.9998750686645508
      ],
      "min": [
        -0.9999470710754395,
        -1.0,
        -0.9998750686645508
      ],
      "type": "VEC3"
    },
    {
      "bufferView": 1,
      "byteOffset": 35040,
      "componentType": 5126,
      "count": 5694,
      "max": [
        1.003000020980835,
        1.0049999952316284
      ],
      "min": [
        0.003000000026077032,
        -0.006000000052154064
      ],
      "type": "VEC2"
    },
    {
      "bufferView": 0,
      "byteOffset": 78240,
      "componentType": 5125,
      "count": 16416,
      "type": "SCALAR"
    },
    {
      "bufferView": 2,
      "byteOffset": 241776,
      "componentType": 5126,
      "count": 581,
      "max": [
        0.7105000019073486,
        0.08889999985694885,
        0.21060000360012054
      ],
      "min": [
        0.5961999893188477,
        -0.08889999985694885,
        -0.032600000500679016
      ],
      "type": "VEC3"
    },
    {
      "bufferView": 2,
      "byteOffset": 248748,
      "componentType": 5126,
      "count": 581,
      "max": [
        1.0,
        0.9966223835945129,
        0.9996017813682556
      ],
      "min": [
        -1.0,
        -0.9919920563697815,
        -0.9950249195098877
      ],
      "type": "VEC3"
    },
    {
      "bufferView": 1,
      "byteOffset": 80592,
      "componentType": 5126,
      "count": 581,
      "max": [
        1.0,
        0.9950000047683716
      ],
      "min": [
        0.007000000216066837,
        0.02800000086426735
      ],
      "type": "VEC2"
    },
    {
      "bufferView": 0,
      "byteOffset": 143904,
      "componentType": 5125,
      "count": 2376,
      "type": "SCALAR"
    },
    {
      "bufferView": 2,
      "byteOffset": 255720,
      "componentType": 5126,
      "count": 2833,
      "max": [
        0.5468000173568726,
        0.5598000288009644,
        0.12960000336170197
      ],
      "min": [
        -0.1882999986410141,
        -0.5460000038146973,
        -0.043299999088048935
      ],
      "type": "VEC3"
    },
    {
      "bufferView": 2,
      "byteOffset": 289716,
      "componentType": 5126,
      "count": 2833,
      "max": [
        0.8096794486045837,
        0.9995378255844116,
        0.9999550580978394
      ],
      "min": [
        -0.9971221685409546,
        -0.9999555349349976,
        -0.9996556043624878
      ],
      "type": "VEC3"
    },
    {
      "bufferView": 1,
      "byteOffset": 85240,
      "componentType": 5126,
      "count": 2833,
      "max": [
        0.6110000014305115,
        0.6869999766349792
      ],
      "min": [
        0.007000000216066837,
        0.014999999664723873
      ],
      "type": "VEC2"
    },
    {
      "bufferView": 0,
      "byteOffset": 153408,
      "componentType": 5125,
      "count": 14394,
      "type": "SCALAR"
    },
    {
      "bufferView": 2,
      "byteOffset": 323712,
      "componentType": 5126,
      "count": 1538,
      "max": [
        0.10220000147819519,
        0.22990000247955322,
        0.19020000100135803
      ],
      "min": [
        -0.9502000212669373,
        -0.21369999647140503,
        -0.09950000047683716
      ],
      "type": "VEC3"
    },
    {
      "bufferView": 2,
      "byteOffset": 342168,
      "componentType": 5126,
      "count": 1538,
      "max": [
        0.9963603615760803,
        0.999442458152771,
        0.9986295104026794
      ],
      "min": [
        -0.9997395873069763,
        -0.999525785446167,
        -0.9999830722808838
      ],
      "type": "VEC3"
    },
    {
      "bufferView": 1,
      "byteOffset": 107904,
      "componentType": 5126,
      "count": 1538,
      "max": [
        1.4609999656677246,
        0.8820000290870667
      ],
      "min": [
        0.003000000026077032,
        0.003000000026077032
      ],
      "type": "VEC2"
    },
    {
      "bufferView": 0,
      "byteOffset": 210984,
      "componentType": 5125,
      "count": 6480,
      "type": "SCALAR"
    },
    {
      "bufferView": 2,
      "byteOffset": 360624,
      "componentType": 5126,
      "count": 532,
      "max": [
        -0.8188999891281128,
        0.23510000109672546,
        0.25200000405311584
      ],
      "min": [
        -0.9850000143051147,
        -0.21739999949932098,
        -0.06610000133514404
      ],
      "type": "VEC3"
    },
    {
      "bufferView": 2,
      "byteOffset": 367008,
      "componentType": 5126,
      "count": 532,
      "max": [
        0.9973925352096558,
        0.9999179840087891,
        0.9916940331459045
      ],
      "min": [
        -0.9999951124191284,
        -0.9999275207519531,
        -0.9976444244384766
      ],
      "type": "VEC3"
    },
    {
      "bufferView": 1,
      "byteOffset": 120208,
      "componentType": 5126,
      "count": 532,
      "max": [
        0.9900000095367432,
        0.984000027179718
      ],
      "min": [
        0.010999999940395355,
        0.007000000216066837
      ],
      "type": "VEC2"
    },
    {
      "bufferView": 0,
      "byteOffset": 236904,
      "componentType": 5125,
      "count": 1668,
      "type": "SCALAR"
    }
  ],
  "asset": {
    "extras": {
      "author": "Tremolo_1404_ (https://sketchfab.com/Tremolo_1404_)",
      "license": "CC-BY-4.0 (http://creativecommons.org/licenses/by/4.0/)",
      "source": "https://sketchfab.com/3d-models/alan-walker-7858bbc3075844e598e63c5adbf6ca89",
      "title": "Alan Walker"
    },
    "generator": "Sketchfab-13.74.0",
    "version": "2.0"
  },
  "bufferViews": [
    {
      "buffer": 0,
      "byteLength": 243576,
      "name": "floatBufferViews",
      "target": 34963
    },
    {
      "buffer": 0,
      "byteLength": 124464,
      "byteOffset": 243576,
      "byteStride": 8,
      "name": "floatBufferViews",
      "target": 34962
    },
    {
      "buffer": 0,
      "byteLength": 373392,
      "byteOffset": 368040,
      "byteStride": 12,
      "name": "floatBufferViews",
      "target": 34962
    }
  ],
  "buffers": [
    {
      "byteLength": 741432,
      "uri": "scene.bin"
    }
  ],
  "extensionsRequired": [
    "KHR_materials_pbrSpecularGlossiness"
  ],
  "extensionsUsed": [
    "KHR_materials_pbrSpecularGlossiness"
  ],
  "images": [
    {
      "uri": "textures/Material0_diffuse.png"
    },
    {
      "uri": "textures/Material1_diffuse.png"
    },
    {
      "uri": "textures/Material2_diffuse.png"
    },
    {
      "uri": "textures/Material3_diffuse.png"
    },
    {
      "uri": "textures/Material4_diffuse.png"
    },
    {
      "uri": "textures/Material5_diffuse.png"
    }
  ],
  "materials": [
    {
      "doubleSided": true,
      "extensions": {
        "KHR_materials_pbrSpecularGlossiness": {
          "diffuseFactor": [
            1.0,
            1.0,
            1.0,
            1.0
          ],
          "diffuseTexture": {
            "index": 0
          },
          "glossinessFactor": 0.42294850537622564,
          "specularFactor": [
            1.0,
            1.0,
            1.0
          ],
          "specularGlossinessTexture": {
            "index": 0
          }
        }
      },
      "name": "Material0"
    },
    {
      "doubleSided": true,
      "extensions": {
        "KHR_materials_pbrSpecularGlossiness": {
          "diffuseFactor": [
            1.0,
            1.0,
            1.0,
            1.0
          ],
          "diffuseTexture": {
            "index": 1
          },
          "glossinessFactor": 0.42294850537622564,
          "specularFactor": [
            1.0,
            1.0,
            1.0
          ],
          "specularGlossinessTexture": {
            "index": 1
          }
        }
      },
      "name": "Material1"
    },
    {
      "doubleSided": true,
      "extensions": {
        "KHR_materials_pbrSpecularGlossiness": {
          "diffuseFactor": [
            1.0,
            1.0,
            1.0,
            1.0
          ],
          "diffuseTexture": {
            "index": 2
          },
          "glossinessFactor": 0.42294850537622564,
          "specularFactor": [
            1.0,
            1.0,
            1.0
          ],
          "specularGlossinessTexture": {
            "index": 2
          }
        }
      },
      "name": "Material2"
    },
    {
      "doubleSided": true,
      "extensions": {
        "KHR_materials_pbrSpecularGlossiness": {
          "diffuseFactor": [
            1.0,
            1.0,
            1.0,
            1.0
          ],
          "diffuseTexture": {
            "index": 3
          },
          "glossinessFactor": 0.42294850537622564,
          "specularFactor": [
            1.0,
            1.0,
            1.0
          ],
          "specularGlossinessTexture": {
            "index": 3
          }
        }
      },
      "name": "Material3"
    },
    {
      "doubleSided": true,
      "extensions": {
        "KHR_materials_pbrSpecularGlossiness": {
          "diffuseFactor": [
            1.0,
            1.0,
            1.0,
            1.0
          ],
          "diffuseTexture": {
            "index": 4
          },
          "glossinessFactor": 0.42294850537622564,
          "specularFactor": [
            1.0,
            1.0,
            1.0
          ],
          "specularGlossinessTexture": {
            "index": 4
          }
        }
      },
      "name": "Material4"
    },
    {
      "doubleSided": true,
      "extensions": {
        "KHR_materials_pbrSpecularGlossiness": {
          "diffuseFactor": [
            1.0,
            1.0,
            1.0,
            1.0
          ],
          "diffuseTexture": {
            "index": 5
          },
          "glossinessFactor": 0.42294850537622564,
          "specularFactor": [
            1.0,
            1.0,
            1.0
          ],
          "specularGlossinessTexture": {
            "index": 5
          }
        }
      },
      "name": "Material5"
    },
    {
      "doubleSided": true,
      "extensions": {
        "KHR_materials_pbrSpecularGlossiness": {
          "diffuseFactor": [
            1.0,
            1.0,
            1.0,
            1.0
          ],
          "diffuseTexture": {
            "index": 5
          },
          "glossinessFactor": 0.42294850537622564,
          "specularFactor": [
            1.0,
            1.0,
            1.0
          ],
          "specularGlossinessTexture": {
            "index": 5
          }
        }
      },
      "name": "Material6"
    }
  ],
  "meshes": [
    {
      "name": "Object_0",
      "primitives": [
        {
          "attributes": {
            "NORMAL": 1,
            "POSITION": 0,
            "TEXCOORD_0": 2
          },
          "indices": 3,
          "material": 0,
          "mode": 4
        }
      ]
    },
    {
      "name": "Object_1",
      "primitives": [
        {
          "attributes": {
            "NORMAL": 5,
            "POSITION": 4,
            "TEXCOORD_0": 6
          },
          "indices": 7,
          "material": 1,
          "mode": 4
        }
      ]
    },
    {
      "name": "Object_2",
      "primitives": [
        {
          "attributes": {
            "NORMAL": 9,
            "POSITION": 8,
            "TEXCOORD_0": 10
          },
          "indices": 11,
          "material": 2,
          "mode": 4
        }
      ]
    },
    {
      "name": "Object_3",
      "primitives": [
        {
          "attributes": {
            "NORMAL": 13,
            "POSITION": 12,
            "TEXCOORD_0": 14
          },
          "indices": 15,
          "material": 3,
          "mode": 4
        }
      ]
    },
    {
      "name": "Object_4",
      "primitives": [
        {
          "attributes": {
            "NORMAL": 17,
            "POSITION": 16,
            "TEXCOORD_0": 18
          },
          "indices": 19,
          "material": 4,
          "mode": 4
        }
      ]
    },
    {
      "name": "Object_5",
      "primitives": [
        {
          "attributes": {
            "NORMAL": 21,
            "POSITION": 20,
            "TEXCOORD_0": 22
          },
          "indices": 23,
          "material": 5,
          "mode": 4
        }
      ]
    },
    {
      "name": "Object_6",
      "primitives": [
        {
          "attributes": {
            "NORMAL": 25,
            "POSITION": 24,
            "TEXCOORD_0": 26
          },
          "indices": 27,
          "material": 6,
          "mode": 4
        }
      ]
    }
  ],
  "nodes": [
    {
      "children": [
        1
      ],
      "matrix": [
        -4.440892098500626e-16,
        1.0,
        5.551115123125783e-16,
        0.0,
        1.0,
        3.330669073875469e-16,
        2.220446049250314e-16,
        0.0,
        1.1102230246251565e-16,
        4.440892098500626e-16,
        -1.0,
        0.0,
        0.0,
        0.0,
        0.0,
        1.0
      ],
      "name": "Sketchfab_model"
    },
    {
      "children": [
        2,
        3,
        4,
        5,
        6,
        7,
        8
      ],
      "name": "Alan Walker.obj.cleaner.materialmerger.gles"
    },
    {
      "mesh": 0,
      "name": "Object_2"
    },
    {
      "mesh": 1,
      "name": "Object_3"
    },
    {
      "mesh": 2,
      "name": "Object_4"
    },
    {
      "mesh": 3,
      "name": "Object_5"
    },
    {
      "mesh": 4,
      "name": "Object_6"
    },
    {
      "mesh": 5,
      "name": "Object_7"
    },
    {
      "mesh": 6,
      "name": "Object_8"
    }
  ],
  "samplers": [
    {
      "magFilter": 9729,
      "minFilter": 9987,
      "wrapS": 10497,
      "wrapT": 10497
    }
  ],
  "scene": 0,
  "scenes": [
    {
      "name": "Sketchfab_Scene",
      "nodes": [
        0
      ]
    }
  ],
  "textures": [
    {
      "sampler": 0,
      "source": 0
    },
    {
      "sampler": 0,
      "source": 1
    },
    {
      "sampler": 0,
      "source": 2
    },
    {
      "sampler": 0,
      "source": 3
    },
    {
      "sampler": 0,
      "source": 4
    },
    {
      "sampler": 0,
      "source": 5
    }
  ]
}
